<?xml version="1.0" encoding="utf-8"?>
<!-- Generator: Adobe Illustrator 22.1.0, SVG Export Plug-In . SVG Version: 6.00 Build 0)  -->
<svg version="1.1" xmlns="http://www.w3.org/2000/svg" xmlns:xlink="http://www.w3.org/1999/xlink" x="0px" y="0px"
	 viewBox="0 0 900 600" style="enable-background:new 0 0 900 600;" xml:space="preserve">
<style type="text/css">
	.st0{fill:none;stroke:#231F20;stroke-miterlimit:10;}
</style>
<g id="Image">
	
		<image style="overflow:visible;" width="900" height="600" xlink:href="building2.jpg">
	</image>
</g>
<g id="Apartments">
	<polygon class="st0" points="724.7,339.3 665.7,355.7 585,349.3 517.7,375.3 517.7,326.7 584,286.7 665.3,296.3 724.7,266.3 	"/>
	<polygon class="st0" points="510,320.8 524.3,320.8 584,286.7 662.6,296 724.7,266.3 724.7,195.7 660.3,236.3 582.3,224.7 
		510,270.7 	"/>
	<polygon class="st0" points="138.3,163.3 138.3,202.7 193.3,189 295,189.7 295,150 193.3,147.7 	"/>
	<polygon class="st0" points="138.3,202.1 138.3,238.3 193.3,225.7 295,226.4 295,189.8 193.3,187.7 	"/>
	<polygon class="st0" points="138.3,238.6 138.3,272.7 193.3,260.8 295,261.4 295,227 193.3,225 	"/>
	<polygon class="st0" points="138.3,273.6 138.3,307.7 193.3,295.8 295,296.4 295,262 193.3,260 	"/>
</g>
</svg>